<!DOCTYPE svg PUBLIC "-//W3C//DTD SVG 1.1//EN" "http://www.w3.org/Graphics/SVG/1.1/DTD/svg11.dtd">
<!-- Uploaded to: SVG Repo, www.svgrepo.com, Transformed by: SVG Repo Mixer Tools -->
<svg version="1.1" id="Layer_1" xmlns="http://www.w3.org/2000/svg" xmlns:xlink="http://www.w3.org/1999/xlink" viewBox="0 0 100 100" enable-background="new 0 0 100 100" xml:space="preserve" width="800px" height="800px" fill="#000000">
<g id="SVGRepo_bgCarrier" stroke-width="0"/>
<g id="SVGRepo_tracerCarrier" stroke-linecap="round" stroke-linejoin="round"/>
<g id="SVGRepo_iconCarrier"> <g> <path fill="#F4A671" d="M94.494,94.492H5.506v0c0-4.049,3.282-7.331,7.331-7.331h74.327C91.212,87.161,94.494,90.443,94.494,94.492 L94.494,94.492z"/> <path fill="#F4A671" d="M87.532,87.161H12.468v0c0-4.049,3.282-7.331,7.331-7.331h60.403C84.25,79.83,87.532,83.112,87.532,87.161 L87.532,87.161z"/> <path fill="#F4A671" d="M94.494,5.508H5.506v0c0,4.049,3.282,7.331,7.331,7.331h74.327C91.212,12.839,94.494,9.557,94.494,5.508 L94.494,5.508z"/> <path fill="#F4A671" d="M87.532,12.839H12.468v0c0,4.049,3.282,7.331,7.331,7.331h60.403C84.25,20.17,87.532,16.888,87.532,12.839 L87.532,12.839z"/> <rect x="22.539" y="20.171" fill="#EFDAB6" width="12.008" height="59.66"/> <rect x="65.453" y="20.17" fill="#EFDAB6" width="12.008" height="59.66"/> <rect x="43.996" y="20.17" fill="#EFDAB6" width="12.008" height="59.66"/> <path fill="#136296" d="M88.015,86.704c-0.239-4.108-3.647-7.379-7.814-7.379h-2.234V20.675h2.234c4.167,0,7.575-3.271,7.814-7.379 C91.937,12.87,95,9.541,95,5.508c0-0.279-0.226-0.506-0.506-0.506H5.506C5.226,5.002,5,5.229,5,5.508 c0,4.033,3.063,7.362,6.985,7.788c0.239,4.108,3.647,7.379,7.814,7.379h2.234v58.649h-2.234c-4.167,0-7.575,3.271-7.814,7.379 C8.063,87.13,5,90.459,5,94.492c0,0.279,0.226,0.506,0.506,0.506h88.989c0.279,0,0.506-0.226,0.506-0.506 C95,90.459,91.937,87.13,88.015,86.704z M76.956,79.325H65.959V20.675h10.997V79.325z M56.51,79.325V20.675h8.437v58.649H56.51z M44.501,20.675h10.997v58.649H44.501V20.675z M6.03,6.014h87.94c-0.259,3.528-3.213,6.32-6.807,6.32H12.837 C9.243,12.333,6.289,9.542,6.03,6.014z M12.992,13.345h74.016c-0.259,3.528-3.213,6.32-6.807,6.32h-2.74H65.453h-9.449H43.996 H19.799C16.205,19.664,13.251,16.873,12.992,13.345z M43.49,20.675v58.649h-8.438V20.675H43.49z M23.044,20.676h10.997v58.648 H23.044V20.676z M19.799,80.336h2.735c0.002,0,0.003,0.001,0.005,0.001h12.008c0.002,0,0.003-0.001,0.005-0.001h9.444h12.008h9.449 h12.008h2.74c3.594,0,6.548,2.791,6.807,6.32H12.992C13.251,83.127,16.205,80.336,19.799,80.336z M6.03,93.986 c0.259-3.528,3.213-6.32,6.807-6.32h74.326c3.594,0,6.548,2.791,6.807,6.32H6.03z"/> <g> <g> <path fill="#136296" d="M28.543,26.913c-0.279,0-0.506-0.226-0.506-0.506v-1.77c0-0.279,0.226-0.506,0.506-0.506 c0.279,0,0.506,0.226,0.506,0.506v1.77C29.048,26.687,28.822,26.913,28.543,26.913z"/> </g> <g> <path fill="#136296" d="M28.543,70.47c-0.279,0-0.506-0.226-0.506-0.506v-3.63c0-0.279,0.226-0.506,0.506-0.506 c0.279,0,0.506,0.226,0.506,0.506v3.63C29.048,70.244,28.822,70.47,28.543,70.47z M28.543,63.211 c-0.279,0-0.506-0.226-0.506-0.506v-3.63c0-0.279,0.226-0.506,0.506-0.506c0.279,0,0.506,0.226,0.506,0.506v3.63 C29.048,62.984,28.822,63.211,28.543,63.211z M28.543,55.951c-0.279,0-0.506-0.226-0.506-0.506v-3.63 c0-0.279,0.226-0.506,0.506-0.506c0.279,0,0.506,0.226,0.506,0.506v3.63C29.048,55.725,28.822,55.951,28.543,55.951z M28.543,48.692c-0.279,0-0.506-0.226-0.506-0.506v-3.63c0-0.279,0.226-0.506,0.506-0.506c0.279,0,0.506,0.226,0.506,0.506v3.63 C29.048,48.465,28.822,48.692,28.543,48.692z M28.543,41.432c-0.279,0-0.506-0.226-0.506-0.506v-3.63 c0-0.279,0.226-0.506,0.506-0.506c0.279,0,0.506,0.226,0.506,0.506v3.63C29.048,41.206,28.822,41.432,28.543,41.432z M28.543,34.173c-0.279,0-0.506-0.226-0.506-0.506v-3.63c0-0.279,0.226-0.506,0.506-0.506c0.279,0,0.506,0.226,0.506,0.506v3.63 C29.048,33.946,28.822,34.173,28.543,34.173z"/> </g> <g> <path fill="#136296" d="M28.543,75.87c-0.279,0-0.506-0.226-0.506-0.506v-1.77c0-0.279,0.226-0.506,0.506-0.506 c0.279,0,0.506,0.226,0.506,0.506v1.77C29.048,75.643,28.822,75.87,28.543,75.87z"/> </g> </g> <g> <g> <path fill="#136296" d="M50,26.913c-0.279,0-0.506-0.226-0.506-0.506v-1.77c0-0.279,0.226-0.506,0.506-0.506 s0.506,0.226,0.506,0.506v1.77C50.506,26.687,50.279,26.913,50,26.913z"/> </g> <g> <path fill="#136296" d="M50,70.47c-0.279,0-0.506-0.226-0.506-0.506v-3.63c0-0.279,0.226-0.506,0.506-0.506 s0.506,0.226,0.506,0.506v3.63C50.506,70.244,50.279,70.47,50,70.47z M50,63.211c-0.279,0-0.506-0.226-0.506-0.506v-3.63 c0-0.279,0.226-0.506,0.506-0.506s0.506,0.226,0.506,0.506v3.63C50.506,62.984,50.279,63.211,50,63.211z M50,55.951 c-0.279,0-0.506-0.226-0.506-0.506v-3.63c0-0.279,0.226-0.506,0.506-0.506s0.506,0.226,0.506,0.506v3.63 C50.506,55.725,50.279,55.951,50,55.951z M50,48.692c-0.279,0-0.506-0.226-0.506-0.506v-3.63c0-0.279,0.226-0.506,0.506-0.506 s0.506,0.226,0.506,0.506v3.63C50.506,48.465,50.279,48.692,50,48.692z M50,41.432c-0.279,0-0.506-0.226-0.506-0.506v-3.63 c0-0.279,0.226-0.506,0.506-0.506s0.506,0.226,0.506,0.506v3.63C50.506,41.206,50.279,41.432,50,41.432z M50,34.173 c-0.279,0-0.506-0.226-0.506-0.506v-3.63c0-0.279,0.226-0.506,0.506-0.506s0.506,0.226,0.506,0.506v3.63 C50.506,33.946,50.279,34.173,50,34.173z"/> </g> <g> <path fill="#136296" d="M50,75.87c-0.279,0-0.506-0.226-0.506-0.506v-1.77c0-0.279,0.226-0.506,0.506-0.506 s0.506,0.226,0.506,0.506v1.77C50.506,75.643,50.279,75.87,50,75.87z"/> </g> </g> <g> <g> <path fill="#136296" d="M71.457,26.913c-0.279,0-0.506-0.226-0.506-0.506v-1.77c0-0.279,0.226-0.506,0.506-0.506 c0.279,0,0.506,0.226,0.506,0.506v1.77C71.963,26.687,71.736,26.913,71.457,26.913z"/> </g> <g> <path fill="#136296" d="M71.457,70.47c-0.279,0-0.506-0.226-0.506-0.506v-3.63c0-0.279,0.226-0.506,0.506-0.506 c0.279,0,0.506,0.226,0.506,0.506v3.63C71.963,70.244,71.736,70.47,71.457,70.47z M71.457,63.211 c-0.279,0-0.506-0.226-0.506-0.506v-3.63c0-0.279,0.226-0.506,0.506-0.506c0.279,0,0.506,0.226,0.506,0.506v3.63 C71.963,62.984,71.736,63.211,71.457,63.211z M71.457,55.951c-0.279,0-0.506-0.226-0.506-0.506v-3.63 c0-0.279,0.226-0.506,0.506-0.506c0.279,0,0.506,0.226,0.506,0.506v3.63C71.963,55.725,71.736,55.951,71.457,55.951z M71.457,48.692c-0.279,0-0.506-0.226-0.506-0.506v-3.63c0-0.279,0.226-0.506,0.506-0.506c0.279,0,0.506,0.226,0.506,0.506v3.63 C71.963,48.465,71.736,48.692,71.457,48.692z M71.457,41.432c-0.279,0-0.506-0.226-0.506-0.506v-3.63 c0-0.279,0.226-0.506,0.506-0.506c0.279,0,0.506,0.226,0.506,0.506v3.63C71.963,41.206,71.736,41.432,71.457,41.432z M71.457,34.173c-0.279,0-0.506-0.226-0.506-0.506v-3.63c0-0.279,0.226-0.506,0.506-0.506c0.279,0,0.506,0.226,0.506,0.506v3.63 C71.963,33.946,71.736,34.173,71.457,34.173z"/> </g> <g> <path fill="#136296" d="M71.457,75.87c-0.279,0-0.506-0.226-0.506-0.506v-1.77c0-0.279,0.226-0.506,0.506-0.506 c0.279,0,0.506,0.226,0.506,0.506v1.77C71.963,75.643,71.736,75.87,71.457,75.87z"/> </g> </g> </g> </g>
</svg>